<?xml version="1.0" standalone="no"?>
<!DOCTYPE svg PUBLIC "-//W3C//DTD SVG 20010904//EN"
 "http://www.w3.org/TR/2001/REC-SVG-20010904/DTD/svg10.dtd">
<svg version="1.0" xmlns="http://www.w3.org/2000/svg"
 width="500.000000pt" height="500.000000pt" viewBox="0 0 500.000000 500.000000"
 preserveAspectRatio="xMidYMid meet">
<metadata>
Created by potrace 1.11, written by Peter Selinger 2001-2013
</metadata>
<g transform="translate(0.000000,500.000000) scale(0.100000,-0.100000)"
fill="#000000" stroke="none">
<path d="M2250 4990 c-131 -17 -159 -21 -235 -36 -137 -27 -349 -88 -372 -106
-7 -6 -13 -8 -13 -5 0 7 -165 -64 -265 -115 -384 -195 -729 -509 -970 -883
-139 -214 -286 -565 -329 -785 -50 -255 -60 -357 -59 -580 1 -399 85 -746 269
-1114 120 -241 267 -441 473 -646 237 -235 506 -413 806 -535 50 -20 99 -40
110 -44 66 -27 237 -73 350 -95 197 -38 292 -45 530 -41 121 2 231 6 245 8 14
3 47 8 73 12 27 4 59 8 70 11 12 2 34 6 49 9 462 85 942 341 1278 683 128 130
154 161 247 286 235 316 415 748 459 1101 3 22 7 45 9 52 8 25 19 213 19 328
0 115 -11 322 -18 334 -2 3 -6 29 -10 58 -5 43 -26 150 -42 216 -2 9 -6 25 -8
35 -13 55 -84 261 -119 342 -87 203 -214 417 -349 587 -83 104 -293 312 -398
394 -211 164 -427 287 -659 375 -105 40 -281 94 -356 108 -16 4 -41 9 -55 11
-144 29 -247 38 -450 40 -124 1 -250 -1 -280 -5z m655 -550 c28 -6 61 -14 75
-16 14 -3 77 -22 140 -43 507 -169 915 -526 1156 -1010 51 -104 136 -338 147
-406 3 -16 9 -48 15 -70 5 -22 13 -61 16 -87 l6 -48 -850 0 -850 0 0 851 0
851 48 -5 c26 -3 70 -11 97 -17z m-855 -15 c0 -2 -306 -616 -679 -1364 l-679
-1360 -15 32 c-39 85 -103 297 -121 402 -13 77 -19 115 -25 185 -9 85 -6 354
4 415 28 172 35 211 64 310 182 640 685 1153 1322 1349 118 36 129 39 129 31z
m190 -1903 l0 -1107 -550 0 c-303 0 -550 4 -551 8 -1 8 1094 2207 1099 2207 1
0 2 -498 2 -1108z m2215 -324 c-13 -87 -36 -186 -67 -283 -17 -55 -32 -102
-33 -105 -1 -3 -7 -18 -13 -33 -7 -16 -12 -31 -12 -33 0 -12 -110 -225 -150
-289 -194 -316 -497 -586 -835 -745 -170 -81 -392 -150 -527 -165 l-58 -7 0
851 0 851 850 0 851 0 -6 -42z m-2222 -1307 c4 -1 7 -82 7 -181 0 -139 -3
-178 -12 -175 -7 2 -29 6 -48 9 -109 17 -294 66 -365 96 -11 5 -64 27 -117 50
-93 40 -289 149 -316 177 -7 7 -19 13 -25 13 -9 0 -9 2 0 8 8 5 838 8 876 3z"/>
</g>
</svg>
