<?xml version="1.0" standalone="no"?>
<!DOCTYPE svg PUBLIC "-//W3C//DTD SVG 20010904//EN"
 "http://www.w3.org/TR/2001/REC-SVG-20010904/DTD/svg10.dtd">
<svg version="1.0" xmlns="http://www.w3.org/2000/svg"
 width="500.000000pt" height="500.000000pt" viewBox="0 0 500.000000 500.000000"
 preserveAspectRatio="xMidYMid meet">
<metadata>
Created by potrace 1.11, written by Peter Selinger 2001-2013
</metadata>
<g transform="translate(0.000000,500.000000) scale(0.100000,-0.100000)"
fill="#000000" stroke="none">
<path d="M2319 4916 c-2 -2 -39 -6 -82 -10 -195 -17 -484 -92 -695 -182 -675
-289 -1199 -897 -1381 -1601 -61 -240 -76 -357 -76 -613 0 -102 3 -219 7 -260
7 -70 33 -237 43 -270 2 -8 6 -27 9 -42 3 -15 9 -42 15 -60 6 -18 22 -71 37
-118 253 -806 936 -1433 1767 -1620 48 -11 105 -23 125 -26 20 -3 42 -7 49 -9
77 -25 649 -26 726 0 7 2 29 6 49 9 135 20 374 89 517 150 163 71 244 114 396
212 493 319 843 799 1009 1382 19 65 36 136 39 157 3 22 14 85 23 140 25 150
25 579 -1 699 -2 11 -6 35 -9 51 -34 239 -148 559 -284 795 -49 85 -148 237
-162 250 -4 3 -13 14 -21 26 -59 88 -271 305 -389 400 -363 294 -760 462
-1245 530 -41 6 -461 15 -466 10z m506 -526 c367 -61 731 -245 1001 -507 66
-64 159 -167 197 -218 60 -81 81 -112 122 -180 81 -134 182 -371 211 -495 10
-43 44 -222 44 -230 0 -6 -302 -10 -825 -10 l-825 0 0 825 c0 454 3 825 8 825
4 0 34 -5 67 -10z m-1421 -1350 c-611 -1223 -657 -1312 -669 -1289 -13 25 -84
226 -90 257 -2 9 -8 37 -14 62 -5 25 -12 59 -15 75 -3 17 -8 41 -11 55 -26
127 -26 461 1 605 75 416 258 771 539 1050 98 97 194 176 300 246 80 53 249
143 315 169 19 7 49 19 65 26 23 9 139 46 220 68 6 2 11 0 13 -4 1 -4 -293
-598 -654 -1320z m846 -515 l0 -1075 -540 0 -539 0 537 1075 c295 591 538
1075 540 1075 1 0 2 -484 2 -1075z m2145 -322 c-4 -27 -18 -93 -30 -148 -129
-553 -515 -1032 -1035 -1283 -103 -50 -315 -126 -381 -137 -19 -3 -42 -8 -51
-11 -22 -7 -44 -11 -100 -18 l-48 -7 0 826 0 825 826 0 825 0 -6 -47z m-2145
-1430 l0 -175 -42 7 c-24 4 -56 9 -73 11 -74 11 -278 73 -369 111 -112 47
-386 203 -386 219 0 1 196 2 435 2 l435 0 0 -175z"/>
</g>
</svg>
